<svg xmlns="http://www.w3.org/2000/svg" width="577" height="483" viewBox="0 0 577 483"><rect width="112" height="86" transform="translate(465 250.5)" fill="#02999a"/><path d="M491.4,313.9c-2-1.7-2.6-4.5-2-8.3l.8-4.8a6.694,6.694,0,0,0,0-2,3.805,3.805,0,0,0-.8-1.7,4.068,4.068,0,0,0-1.8-1.2,7.948,7.948,0,0,0-2.9-.5V291a8.119,8.119,0,0,0,2.9-.4,4.067,4.067,0,0,0,1.8-1.2,3.8,3.8,0,0,0,.8-1.7,6.694,6.694,0,0,0,0-2l-.8-4.8a13.891,13.891,0,0,1,0-5,5.623,5.623,0,0,1,2-3.3,8.518,8.518,0,0,1,3.8-1.9,22.581,22.581,0,0,1,5.5-.6v4.5a12.311,12.311,0,0,0-2.9.3,3.165,3.165,0,0,0-1.8,1,3.667,3.667,0,0,0-.8,1.9,10.427,10.427,0,0,0,.1,3l.9,5.5a5.347,5.347,0,0,1-1,4.4,7.978,7.978,0,0,1-4,2.4,6.891,6.891,0,0,1,4,2.3,5.839,5.839,0,0,1,1,4.4l-.9,5.4a11.12,11.12,0,0,0-.1,3.1,3.336,3.336,0,0,0,.8,1.9,3.165,3.165,0,0,0,1.8,1,18.434,18.434,0,0,0,2.9.4v4.5C496.5,316.4,493.4,315.6,491.4,313.9Z" fill="#fff"/><circle cx="4" cy="4" r="4" transform="translate(505 289)" fill="#fff"/><circle cx="4" cy="4" r="4" transform="translate(517 289)" fill="#fff"/><circle cx="4" cy="4" r="4" transform="translate(529 289)" fill="#fff"/><rect width="52" height="12" transform="translate(418 114.5)" fill="#fff"/><rect width="52" height="12" transform="translate(418 132.5)" fill="#84b5b2"/><rect width="52" height="12" transform="translate(418 150.5)" fill="#46908c"/><rect width="3" height="95" transform="translate(519.5 137.5)" fill="#fff"/><rect width="25" height="3" transform="translate(495 137.5)" fill="#fff"/><circle cx="6" cy="6" r="6" transform="translate(515 222.5)" fill="#fff"/><circle cx="6" cy="6" r="6" transform="translate(486 133)" fill="#fff"/><rect width="52" height="3" transform="translate(347.5 137.5)" fill="#fff"/><rect width="288.5" height="238" fill="#086b65"/><path d="M288.5,238H0V0H288.5ZM3,235H285.5V3H3Z" fill="#fff"/><circle cx="4" cy="4" r="4" transform="translate(36 14)" fill="#fff"/><circle cx="4" cy="4" r="4" transform="translate(54 14)" fill="#fff"/><rect width="283.5" height="3" transform="translate(3 32)" fill="#fff"/><path d="M56.7,69.1v-.8L69.5,61v3.6L62,68.7l7.5,4.2v3.6Z" fill="#f5f5f5"/><path d="M81.7,79.3a8.808,8.808,0,0,1-3.3-.6A7.707,7.707,0,0,1,75.7,77a7.522,7.522,0,0,1-1.8-2.7,9.689,9.689,0,0,1-.6-3.6v-.3a8.571,8.571,0,0,1,.7-3.6,6.428,6.428,0,0,1,1.8-2.7,7.707,7.707,0,0,1,2.7-1.7,8.808,8.808,0,0,1,3.3-.6,12.412,12.412,0,0,1,2.7.3,6.59,6.59,0,0,1,2.4,1.1,5.194,5.194,0,0,1,1.7,1.9,6.6,6.6,0,0,1,.9,2.9H85.8a3.539,3.539,0,0,0-1.3-2.4,4.209,4.209,0,0,0-2.6-.7,3.425,3.425,0,0,0-1.8.4,3.007,3.007,0,0,0-1.4,1.1,5.559,5.559,0,0,0-.9,1.7,8.524,8.524,0,0,0-.3,2.3v.3a6.562,6.562,0,0,0,1.2,4.2,4.441,4.441,0,0,0,3.4,1.4,7.719,7.719,0,0,0,1.5-.2,2.4,2.4,0,0,0,1.2-.7,3.126,3.126,0,0,0,.9-1.1,3.768,3.768,0,0,0,.4-1.6h3.6a7.13,7.13,0,0,1-.7,2.6,6.524,6.524,0,0,1-1.6,2.1,8.146,8.146,0,0,1-5.7,1.9Z" fill="#f5f5f5"/><path d="M100.9,79.3a9.342,9.342,0,0,1-3.4-.6A8.276,8.276,0,0,1,94.8,77,6.428,6.428,0,0,1,93,74.3a9.509,9.509,0,0,1-.6-3.5v-.3a7.824,7.824,0,0,1,.7-3.5,6.428,6.428,0,0,1,1.8-2.7,9.8,9.8,0,0,1,2.7-1.8,9.342,9.342,0,0,1,3.4-.6,9.737,9.737,0,0,1,3.4.6,8.276,8.276,0,0,1,2.7,1.7,7.992,7.992,0,0,1,1.8,2.7,9.48,9.48,0,0,1,.7,3.5v.3a7.824,7.824,0,0,1-.7,3.5,6.428,6.428,0,0,1-1.8,2.7,7.707,7.707,0,0,1-2.7,1.7A8.116,8.116,0,0,1,100.9,79.3Zm.1-3a4.061,4.061,0,0,0,3.4-1.5,6.263,6.263,0,0,0,1.2-4.1v-.2a6.452,6.452,0,0,0-1.2-4.1,4.6,4.6,0,0,0-6.8,0,6.263,6.263,0,0,0-1.2,4.1v.3a6.452,6.452,0,0,0,1.2,4.1A4.293,4.293,0,0,0,101,76.3Z" fill="#f5f5f5"/><path d="M120,79.3a9.291,9.291,0,0,1-2.9-.5,6.342,6.342,0,0,1-2.3-1.6,7.6,7.6,0,0,1-1.6-2.6,10.064,10.064,0,0,1-.6-3.6v-.3a10.064,10.064,0,0,1,.6-3.6,8.541,8.541,0,0,1,1.6-2.8,6.6,6.6,0,0,1,2.4-1.7,7.306,7.306,0,0,1,3-.6,6.182,6.182,0,0,1,3.3.8,5.737,5.737,0,0,1,2,2.1V54.5h3.9V79h-3.9V76.2a4.7,4.7,0,0,1-.9,1.2,6.42,6.42,0,0,1-1.3,1,7.74,7.74,0,0,1-1.6.7A8.806,8.806,0,0,1,120,79.3Zm1-3a4.374,4.374,0,0,0,3.3-1.4,5.722,5.722,0,0,0,1.3-4.2v-.3a6.375,6.375,0,0,0-1.2-4.2,4.589,4.589,0,0,0-6.6,0,6.562,6.562,0,0,0-1.2,4.2v.3a6.082,6.082,0,0,0,1.2,4.1A4.073,4.073,0,0,0,121,76.3Z" fill="#f5f5f5"/><path d="M142.1,79.3a9.342,9.342,0,0,1-3.4-.6A9.482,9.482,0,0,1,136,77a7.522,7.522,0,0,1-1.8-2.7,8.27,8.27,0,0,1-.6-3.6v-.3a9.509,9.509,0,0,1,.6-3.5,7.341,7.341,0,0,1,1.7-2.7,8.061,8.061,0,0,1,2.6-1.8,7.2,7.2,0,0,1,3.3-.6,10.474,10.474,0,0,1,3,.5,6.437,6.437,0,0,1,2.5,1.5,7.821,7.821,0,0,1,1.7,2.6,10.73,10.73,0,0,1,.7,3.8v1.1H137.4a5.875,5.875,0,0,0,1.3,3.7,5.125,5.125,0,0,0,6,.6,3.47,3.47,0,0,0,1.2-1.9h3.7a6.17,6.17,0,0,1-2.4,4.1A7.4,7.4,0,0,1,142.1,79.3ZM146,68.9a4.718,4.718,0,0,0-1.2-3.2,3.8,3.8,0,0,0-2.9-1,4.172,4.172,0,0,0-2.9,1.1,5.591,5.591,0,0,0-1.4,3.1Z" fill="#f5f5f5"/><path d="M160.9,54.2h3.3l-9.7,29.6h-3.3Z" fill="#f5f5f5"/><path d="M167.4,72.8l7.5-4.1-7.5-4.2V61l12.8,7.3v.8l-12.8,7.3Z" fill="#f5f5f5"/><path d="M182.4,235H3V160H139.1a45.151,45.151,0,1,1,43.3,33h-.1V160H139a45.182,45.182,0,0,0,43.3,33v42Z" fill="#02999a"/><rect width="154" height="164" transform="translate(231 319)" fill="#02999a"/><path d="M279.6,383.3h8.7l11.8,35.8h-6.9l-2.8-8.8H276.8l-2.8,8.8h-6.3Zm-1.3,22h10.5l-5.3-16.6Z" fill="#086b65"/><path d="M306.7,383.3h11.5a18.124,18.124,0,0,1,5.4.7,13.618,13.618,0,0,1,4.2,2,11.285,11.285,0,0,1,2.7,3.4,12.212,12.212,0,0,1,1,4.9v.2a10.727,10.727,0,0,1-1,4.9,8.194,8.194,0,0,1-2.7,3.4,12.071,12.071,0,0,1-4.1,2,22.046,22.046,0,0,1-5.3.6h-5V419h-6.6V383.3Zm11.5,17.3a7.288,7.288,0,0,0,5-1.5,5.473,5.473,0,0,0,1.7-4.5v-.2q0-3.15-1.8-4.5a8.048,8.048,0,0,0-5-1.3h-4.9v12.2h5Z" fill="#086b65"/><path d="M338.4,383.3h6.7V419h-6.7Z" fill="#086b65"/><rect width="114" height="4" transform="translate(251 339)" fill="#fff"/><rect width="15" height="4" transform="translate(251 349)" fill="#fff"/><rect width="15" height="4" transform="translate(271 349)" fill="#fff"/><rect width="15" height="4" transform="translate(291 349)" fill="#fff"/><rect width="15" height="4" transform="translate(310 349)" fill="#fff"/><rect width="15" height="4" transform="translate(330 349)" fill="#fff"/><rect width="15" height="4" transform="translate(350 349)" fill="#fff"/><rect width="74" height="4" transform="translate(251 359)" fill="#fff"/><rect width="35" height="4" transform="translate(330 359)" fill="#fff"/><rect width="28" height="4" transform="translate(251 439)" fill="#fff"/><rect width="35" height="4" transform="translate(251 449)" fill="#fff"/><rect width="15" height="4" transform="translate(291 449)" fill="#fff"/><rect width="15" height="4" transform="translate(310 449)" fill="#fff"/><rect width="35" height="4" transform="translate(330 449)" fill="#fff"/><rect width="74" height="4" transform="translate(251 459)" fill="#fff"/><rect width="35" height="4" transform="translate(330 459)" fill="#fff"/><rect width="50" height="4" transform="translate(284 439)" fill="#fff"/><rect width="26" height="4" transform="translate(339 439)" fill="#fff"/><rect width="3" height="146" transform="translate(142.5 254)" fill="#fff"/><rect width="69" height="3" transform="translate(142.5 399.5)" fill="#fff"/><circle cx="6" cy="6" r="6" transform="translate(138 250)" fill="#fff"/><circle cx="6" cy="6" r="6" transform="translate(203 395)" fill="#fff"/><rect width="3" height="48" transform="translate(519.5 354.5)" fill="#fff"/><rect width="111" height="3" transform="translate(409 399.5)" fill="#fff"/><circle cx="6" cy="6" r="6" transform="translate(515 352.5)" fill="#fff"/><circle cx="6" cy="6" r="6" transform="translate(401 395)" fill="#fff"/><rect width="3" height="22" transform="translate(347.5 118.5)" fill="#fff"/><rect width="42" height="3" transform="translate(308.5 117.5)" fill="#fff"/><circle cx="4" cy="4" r="4" transform="translate(18 14)" fill="#fff"/><circle cx="6" cy="6" r="6" transform="translate(390 132.5)" fill="#fff"/><path d="M541.1,311.9a11.082,11.082,0,0,0,2.8-.4,3.867,3.867,0,0,0,1.8-1,3.753,3.753,0,0,0,.9-1.9,11.188,11.188,0,0,0-.1-3.1l-.8-5.4a5.347,5.347,0,0,1,1-4.4,6.688,6.688,0,0,1,4-2.3,6.508,6.508,0,0,1-4-2.4,5.731,5.731,0,0,1-1-4.4l.8-5.5a10.426,10.426,0,0,0,.1-3,2.854,2.854,0,0,0-.9-1.9,3.535,3.535,0,0,0-1.8-1,11.433,11.433,0,0,0-2.8-.3v-4.5a22.581,22.581,0,0,1,5.5.6,8.518,8.518,0,0,1,3.8,1.9,6.147,6.147,0,0,1,1.9,3.3,13.891,13.891,0,0,1,0,5l-.8,4.8a6.706,6.706,0,0,0,0,2,3.805,3.805,0,0,0,.8,1.7,4.068,4.068,0,0,0,1.8,1.2,8.119,8.119,0,0,0,2.9.4v4.4a6.291,6.291,0,0,0-2.9.5,4.739,4.739,0,0,0-1.8,1.2,3.365,3.365,0,0,0-.8,1.7,6.7,6.7,0,0,0,0,2l.8,4.8c.7,3.9,0,6.6-1.9,8.3-2,1.7-5.1,2.5-9.3,2.5Z" fill="#fff"/><circle cx="6" cy="6" r="6" transform="translate(304.5 113)" fill="#fff"/></svg>