<svg xmlns="http://www.w3.org/2000/svg" xmlns:xlink="http://www.w3.org/1999/xlink" width="2560" height="1440" viewBox="0 0 2560 1440"><defs><linearGradient id="a" x1="0.702" y1="-0.421" x2="0.458" y2="0.584" gradientUnits="objectBoundingBox"><stop offset="0" stop-color="#fff" stop-opacity="0"/><stop offset="1" stop-color="#fff" stop-opacity="0.051"/></linearGradient></defs><path d="M0,1085.667l251.333-.933h.133L508.8,991,766,997h.267L1023.6,818.067,1280,780.6l.8-.133h.133l.4-.4,256-200.533.8-.667.533.133,256,46.267.533.133h.267l.533-.267L2052,459l1.067-.667.133-.133.133-.267L2310.4,61.8,2560,96.2V1228.733L0,1228.6Z" transform="translate(0 211.267)" fill="url(#a)"/><path d="M2560,163.133v1.333l-249.6-34.4L2053.333,526.2l-.133.267-.133.133-1.067.667L1796,693.4l-.533.267h-.267l-.533-.133-256-46.267-.533-.133-.8.667-256,200.533-.4.4h-.133l-.8.133-256.4,37.467L766.267,1065.267H766l-257.2-6L251.467,1153h-.133L0,1153.933V1152.6l250.667-.933V-143H252V1151.4l256-93.2V-143h1.333V1058.067l256,5.867V-143h1.333V1063.267l256-178V-143H1024V884.867l256-37.333V-143h1.333V846.733l256-200.533V-143h1.333V645.933l256,46.267V-143H1796V691.8l256-166.133V-143h1.333V523.667l256-394.533V-143h1.333V128.867Z" transform="translate(0 143)" fill="#fff" opacity="0.1"/></svg>