<svg xmlns="http://www.w3.org/2000/svg" xmlns:xlink="http://www.w3.org/1999/xlink" width="414" height="896" viewBox="0 0 414 896"><defs><linearGradient id="a" x1="0.877" y1="1.051" x2="0.301" y2="0.21" gradientUnits="objectBoundingBox"><stop offset="0" stop-color="#fff" stop-opacity="0"/><stop offset="1" stop-color="#fff" stop-opacity="0.051"/></linearGradient></defs><path d="M414,362.2V896H0V720L82.2,588l82.3-28.1.6-.1h.1l.3-.2,82-150.4.6-.5.4.1h0l82,34.7.4.1h.2l.1-.1.3-.2Z" fill="url(#a)"/><path d="M414,361.5v1.2l-82,80.6-.4.3h-.2l-.2-.1H331l-82-34.7-.3-.1-.2.1-.5.4L166,559.6l-.3.2h-.1l-.6.1L82.7,588,0,720.9V720L82,587.3V0h1V587l82-28.1V0h1V558.3l82-150.4V0h1V407.7l82,34.8V0h1V442.1Z" fill="#fff" opacity="0.1"/></svg>