<svg xmlns="http://www.w3.org/2000/svg" xmlns:xlink="http://www.w3.org/1999/xlink" width="1024" height="1366" viewBox="0 0 1024 1366">
  <defs>
    <linearGradient id="linear-gradient" x1="0.714" y1="1.303" x2="0.43" y2="0.239" gradientUnits="objectBoundingBox">
      <stop offset="0" stop-color="#fff" stop-opacity="0"/>
      <stop offset="1" stop-color="#fff" stop-opacity="0.051"/>
    </linearGradient>
  </defs>
  <g id="Grid_Graph" data-name="Grid&amp;Graph" transform="translate(0 598)">
    <path id="Graph" d="M1024,253.8V768H0V610.8l126.5,3h.2l193-134.2L512,451.5l.6-.1h.1l.3-.3L705,300.7l.6-.5.4.1L898,335l.4.1h.2l.4-.2Z" fill="url(#linear-gradient)"/>
    <path id="Grid" d="M1024,252.5v1.3L899,334.9l-.4.2h-.2l-.4-.1L706,300.3l-.4-.1-.6.5L513,451.1l-.3.3h-.1l-.6.1L319.7,479.6l-193,134.2h-.2L0,610.8v-.9l126,2.9V-598h1V612.3L319,478.8V-598h1V478.5l192-28V-598h1V449.9L705,299.5V-598h1V299.3L898,334V-598h1V333.7Z" fill="#fff" opacity="0.1"/>
  </g>
</svg>
