<svg xmlns="http://www.w3.org/2000/svg" xmlns:xlink="http://www.w3.org/1999/xlink" width="1366" height="1024" viewBox="0 0 1366 1024"><defs><linearGradient id="a" x1="0.722" y1="1.274" x2="0.459" y2="0.357" gradientUnits="objectBoundingBox"><stop offset="0" stop-color="#fff" stop-opacity="0"/><stop offset="1" stop-color="#fff" stop-opacity="0.051"/></linearGradient></defs><g transform="translate(0 253)"><path d="M1366,33.8V771H0V630.824L104.6,592.7l192.9,4.5h.2l193-134.273L683,434.718h.7l.3-.3L876,283.936l.6-.5.4.1,192,34.619.4.2h.2l.4-.2,192-124.668.8-.5.1-.1.1-.3Z" fill="url(#a)"/><path d="M1366,32.029v1.9L1263,192.7l-.1.3-.1.1-.8.5L1070,318.259l-.4.2h-.2l-.4-.2L877,283.643l-.4-.1-.6.5L684,434.511l-.3.3H683L490.7,463.024l-193,134.261h-.2l-192.9-4.5L0,630.9v-1.1l104-37.917V-253h1V591.882l192,4.4V-253h1V595.784l192-133.56V-253h1V461.824l192-28.013V-253h1V433.311L876,282.742V-253h1V282.642l192,34.616V-253h1V317.058L1262,192.4V-253h1V190.9Z" fill="#fff" opacity="0.1"/></g></svg>