<svg xmlns="http://www.w3.org/2000/svg" xmlns:xlink="http://www.w3.org/1999/xlink" width="1440" height="900" viewBox="0 0 1440 900"><defs><linearGradient id="a" x1="0.724" y1="1.266" x2="0.468" y2="0.389" gradientUnits="objectBoundingBox"><stop offset="0" stop-color="#fff" stop-opacity="0"/><stop offset="1" stop-color="#fff" stop-opacity="0.051"/></linearGradient></defs><path d="M1440,106.2V900L0,899.9V773.3l141.6-51.6,192.9,4.5h.2L527.7,592,720,563.9l.6-.1h.1l.3-.3L913,413.1l.6-.5.4.1,192,34.7.4.1h.2l.4-.2,192-124.6.8-.5.1-.1.1-.2Z" fill="url(#a)"/><path d="M1440,104.2v2L1300,321.9l-.1.2-.1.1-.8.5L1107,447.3l-.4.2h-.2l-.4-.1L914,412.7l-.4-.1-.6.5L721,563.5l-.3.3h-.1l-.6.1L527.7,592l-193,134.2h-.2l-192.9-4.5L0,773.3v-1.1l141-51.3V0h1V720.8l192,4.4V0h1V724.7L527,591.2V0h1V590.9l192-28V0h1V562.3L913,411.9V0h1V411.7l192,34.7V0h1V446.1l192-124.6V0h1V320Z" fill="#fff" opacity="0.1"/></svg>