<svg xmlns="http://www.w3.org/2000/svg" xmlns:xlink="http://www.w3.org/1999/xlink" width="1920" height="1080" viewBox="0 0 1920 1080"><defs><linearGradient id="a" x1="0.702" y1="-0.421" x2="0.458" y2="0.584" gradientUnits="objectBoundingBox"><stop offset="0" stop-color="#fff" stop-opacity="0"/><stop offset="1" stop-color="#fff" stop-opacity="0.051"/></linearGradient></defs><g transform="translate(0 143)"><path d="M0,829.7l188.5-.7h.1l193-70.3,192.9,4.5h.2L767.7,629,960,600.9l.6-.1h.1l.3-.3,192-150.4.6-.5.4.1,192,34.7.4.1h.2l.4-.2,192-124.6.8-.5.1-.1.1-.2L1732.8,61.8,1920,87.6V937L0,936.9Z" fill="url(#a)"/><path d="M1920,86.6v1L1732.8,61.8,1540,358.9l-.1.2-.1.1-.8.5L1347,484.3l-.4.2h-.2l-.4-.1-192-34.7-.4-.1-.6.5L961,600.5l-.3.3h-.1l-.6.1L767.7,629l-193,134.2h-.2l-192.9-4.5L188.6,829h-.1L0,829.7v-1l188-.7V-143h1V827.8l192-69.9V-143h1V757.8l192,4.4V-143h1V761.7L767,628.2V-143h1V627.9l192-28V-143h1V599.3l192-150.4V-143h1V448.7l192,34.7V-143h1V483.1l192-124.6V-143h1V357L1732,61.1V-143h1V60.9Z" fill="#fff" opacity="0.1"/></g></svg>