<svg xmlns="http://www.w3.org/2000/svg" xmlns:xlink="http://www.w3.org/1999/xlink" width="768" height="1064" viewBox="0 0 768 1064"><defs><linearGradient id="a" x1="0.754" y1="1.188" x2="0.418" y2="0.278" gradientUnits="objectBoundingBox"><stop offset="0" stop-color="#fff" stop-opacity="0"/><stop offset="1" stop-color="#fff" stop-opacity="0.051"/></linearGradient></defs><path d="M768,530.2V1064H0V887.3l128.5,2.9h.2l128-134.1L384,727.9h.6l.1-.1.3-.2L512,577.2l.6-.5.4.1,127,34.7.4.1h.2l.4-.2Z" fill="url(#a)"/><path d="M768,529v1.2L641,611.4l-.4.2h-.2l-.4-.1L513,576.8l-.4-.1-.6.5L385,727.6l-.3.2-.1.1H384L256.7,756.1l-128,134.1h-.2L0,887.3v-1l128,2.9V0h1V888.8L256,755.3V0h1V755l127-28.1V0h1V726.3L512,575.9V0h1V575.7l127,34.8V0h1V610.1Z" fill="#fff" opacity="0.1"/></svg>