<svg xmlns="http://www.w3.org/2000/svg" xmlns:xlink="http://www.w3.org/1999/xlink" width="375" height="667" viewBox="0 0 375 667"><defs><linearGradient id="a" x1="0.905" y1="-0.285" x2="0.279" y2="0.543" gradientUnits="objectBoundingBox"><stop offset="0" stop-color="#fff" stop-opacity="0"/><stop offset="1" stop-color="#fff" stop-opacity="0.051"/></linearGradient></defs><path d="M375,133.2V667H0V492.7L75.7,359,150,330.9l.6-.1h.1l.3-.2,74-150.4.6-.5.4.1,74,34.7.4.1h.2l.4-.3Z" fill="url(#a)"/><path d="M375,132v1.2l-74,81.1-.4.3h-.2l-.4-.1-74-34.7-.4-.1-.6.5L151,330.6l-.3.2h-.1l-.6.1L75.7,359,0,492.7V0H0V491.8L75,358.3V0h1V358l74-28.1V0h1V329.3l74-150.4V0h1V178.7l74,34.8V0h1V213.1Z" fill="#fff" opacity="0.1"/></svg>