<svg xmlns="http://www.w3.org/2000/svg" xmlns:xlink="http://www.w3.org/1999/xlink" width="1536" height="864" viewBox="0 0 1536 864"><defs><linearGradient id="a" x1="0.727" y1="1.258" x2="0.477" y2="0.423" gradientUnits="objectBoundingBox"><stop offset="0" stop-color="#fff" stop-opacity="0"/><stop offset="1" stop-color="#fff" stop-opacity="0.051"/></linearGradient></defs><path d="M1536,0V864L0,863.9V754.8l189.6-69.1,192.9,4.5h.2L575.7,556,768,527.9l.6-.1h.1l.3-.3L961,377.1l.6-.5.4.1,192,34.7.4.1h.2l.4-.2,192-124.6.8-.5.1-.1.1-.2L1533.5,0Z" fill="url(#a)"/><path d="M1533.5,0,1348,285.9l-.1.2-.1.1-.8.5L1155,411.3l-.4.2h-.2l-.4-.1L962,376.7l-.4-.1-.6.5L769,527.5l-.3.3h-.1l-.6.1L575.7,556l-193,134.2h-.2l-192.9-4.5L0,754.8v-1.1l189-68.8V0h1V684.8l192,4.4V0h1V688.7L575,555.2V0h1V554.9l192-28V0h1V526.3L961,375.9V0h1V375.7l192,34.7V0h1V410.1l192-124.6V0h1V284L1532.3,0Z" fill="#fff" opacity="0.1"/></svg>