<svg xmlns="http://www.w3.org/2000/svg" xmlns:xlink="http://www.w3.org/1999/xlink" width="414" height="736" viewBox="0 0 414 736"><defs><linearGradient id="a" x1="0.877" y1="1.051" x2="0.301" y2="0.21" gradientUnits="objectBoundingBox"><stop offset="0" stop-color="#fff" stop-opacity="0"/><stop offset="1" stop-color="#fff" stop-opacity="0.051"/></linearGradient></defs><path d="M414,202.2V736H0V560L82.2,428l82.3-28.1.6-.1h.1l.3-.2,82-150.4.6-.5.4.1h0l82,34.7.4.1h.2l.1-.1.3-.2Z" fill="url(#a)"/><path d="M414,201.5v1.2l-82,80.6-.4.3h-.2l-.2-.1H331l-82-34.7-.3-.1-.2.1-.5.4L166,399.6l-.3.2h-.1l-.6.1L82.7,428,0,560.9V560L82,427.3V0h1V427l82-28.1V0h1V398.3l82-150.4V0h1V247.7l82,34.8V0h1V282.1Z" fill="#fff" opacity="0.1"/></svg>