<svg xmlns="http://www.w3.org/2000/svg" width="32" height="32" viewBox="0 0 32 32"><path d="M-4683-5162a15.9,15.9,0,0,1-6.228-1.257,15.951,15.951,0,0,1-5.086-3.429,15.944,15.944,0,0,1-3.429-5.086A15.9,15.9,0,0,1-4699-5178a15.9,15.9,0,0,1,1.257-6.228,15.939,15.939,0,0,1,3.429-5.086,15.951,15.951,0,0,1,5.086-3.429A15.908,15.908,0,0,1-4683-5194a15.908,15.908,0,0,1,6.228,1.257,15.952,15.952,0,0,1,5.085,3.429,15.948,15.948,0,0,1,3.429,5.086A15.9,15.9,0,0,1-4667-5178a15.9,15.9,0,0,1-1.257,6.228,15.954,15.954,0,0,1-3.429,5.086,15.944,15.944,0,0,1-5.085,3.429A15.9,15.9,0,0,1-4683-5162Zm-3.158-15.374v10.46h4.325v-10.46h2.855l.377-3.672h-3.232v-2.164a.986.986,0,0,1,.316-.805.96.96,0,0,1,.6-.2h2.325v-3.567l-3.2-.014a4.057,4.057,0,0,0-4.364,4.364v2.379h-2.058v3.676Z" transform="translate(4699 5194)" fill="#3b5998"/></svg>