<svg xmlns="http://www.w3.org/2000/svg" width="226" height="667" viewBox="0 0 226 667"><g transform="translate(-75)"><g transform="translate(0 -498)"><rect width="1" height="667" transform="translate(75 498)" fill="#fff" opacity="0.1"/><rect width="1" height="667" transform="translate(150 498)" fill="#fff" opacity="0.1"/><rect width="1" height="667" transform="translate(225 498)" fill="#fff" opacity="0.1"/><rect width="1" height="667" transform="translate(300 498)" fill="#fff" opacity="0.1"/></g><text transform="translate(225)" fill="#fff" font-size="13" font-family="Roboto-Regular, Roboto" opacity="0.05"><tspan x="1.387" y="14">0110000101</tspan><tspan x="1.387" y="32">1001000110</tspan><tspan x="1.387" y="50">1000011001</tspan><tspan x="1.384" y="68">0001101000</tspan><tspan x="1.387" y="86">0110011000</tspan><tspan x="1.384" y="104">1000000110</tspan><tspan x="1.39" y="122">0110011100</tspan><tspan x="1.39" y="140">1101100100</tspan><tspan x="1.39" y="158">0110011001</tspan><tspan x="1.393" y="176">1001110110</tspan><tspan x="1.387" y="194">0001011001</tspan><tspan x="1.393" y="212">1101100110</tspan><tspan x="1.393" y="230">0111001101</tspan><tspan x="1.387" y="248">1001000110</tspan><tspan x="1.387" y="266">0111001000</tspan><tspan x="1.39" y="284">0001110011</tspan><tspan x="1.387" y="302">0110010001</tspan><tspan x="1.393" y="320">1001110110</tspan><tspan x="1.387" y="338">0100011001</tspan><tspan x="1.393" y="356">1001100111</tspan><tspan x="1.39" y="374">0111001001</tspan><tspan x="1.387" y="392">1001010010</tspan><tspan x="1.384" y="410">0000011001</tspan><tspan x="1.393" y="428">1101100101</tspan><tspan x="1.39" y="446">0111001001</tspan><tspan x="1.39" y="464">1001110010</tspan><tspan x="1.384" y="482">0000011001</tspan><tspan x="1.393" y="500">0101100111</tspan><tspan x="1.39" y="518">0110010101</tspan><tspan x="1.387" y="536">1100100010</tspan><tspan x="1.384" y="554">0000011001</tspan><tspan x="1.39" y="572">0101110010</tspan><tspan x="1.387" y="590">0110001001</tspan><tspan x="1.39" y="608">1000100111</tspan><tspan x="1.39" y="626">1010011001</tspan><tspan x="1.384" y="644">0001100010</tspan><tspan x="1.38" y="662">0010000001</tspan></text></g></svg>