<svg xmlns="http://www.w3.org/2000/svg" width="2060" height="1440" viewBox="0 0 2060 1440"><g transform="translate(-250.666)"><g transform="translate(250.666)"><rect width="1.333" height="1440" transform="translate(0)" fill="#fff" opacity="0.1"/><rect width="1.333" height="1440" transform="translate(257.333)" fill="#fff" opacity="0.1"/><rect width="1.333" height="1440" transform="translate(514.667)" fill="#fff" opacity="0.1"/><rect width="1.333" height="1440" transform="translate(772)" fill="#fff" opacity="0.1"/><rect width="1.333" height="1440" transform="translate(1029.333)" fill="#fff" opacity="0.1"/><rect width="1.333" height="1440" transform="translate(1286.667)" fill="#fff" opacity="0.1"/><rect width="1.333" height="1440" transform="translate(1544)" fill="#fff" opacity="0.1"/><rect width="1.333" height="1440" transform="translate(1801.333)" fill="#fff" opacity="0.1"/><rect width="1.333" height="1440" transform="translate(2058.667)" fill="#fff" opacity="0.1"/></g><text transform="translate(2053.334)" fill="#fff" font-size="13" font-family="Roboto-Regular, Roboto" opacity="0.05"><tspan x="3.513" y="14">0110000101100100011010000110010001</tspan><tspan x="3.516" y="32">1010000110011000100000011001100111</tspan><tspan x="3.522" y="50">0011011001000110011001100111011000</tspan><tspan x="3.529" y="68">0101100111011001100111001101100100</tspan><tspan x="3.519" y="86">0110011100100000011100110110010001</tspan><tspan x="3.532" y="104">1001110110010001100110011001110111</tspan><tspan x="3.516" y="122">0010011001010010000001100111011001</tspan><tspan x="3.519" y="140">0101110010011001110010000001100101</tspan><tspan x="3.519" y="158">0110011101100101011100100010000001</tspan><tspan x="3.522" y="176">1001010111001001100010011000100111</tspan><tspan x="3.51" y="194">1010011001000110001000100000011001</tspan><tspan x="3.507" y="212">1001100100011000100010000001100100</tspan><tspan x="3.513" y="230">0110001000100000011001010111001001</tspan><tspan x="3.522" y="248">1010000110101001110010011001010110</tspan><tspan x="3.522" y="266">1110011011000010110010001101000011</tspan><tspan x="3.507" y="284">0010001101000011001100010000001100</tspan><tspan x="3.529" y="302">1100111001101100100011001100110011</tspan><tspan x="3.529" y="320">1011000010110011101100110011100110</tspan><tspan x="3.522" y="338">1100100011001110010000001110011011</tspan><tspan x="3.519" y="356">0010001100111011001000110011001100</tspan><tspan x="3.522" y="374">1110111001001100101001000000110011</tspan><tspan x="3.519" y="392">1011001010111001001100111001000000</tspan><tspan x="3.529" y="410">1100101011001110110010101110010001</tspan><tspan x="3.513" y="428">0000001100101011100100110001001100</tspan><tspan x="3.513" y="446">0100111101001100100011000100010000</tspan><tspan x="3.507" y="464">0011001100110010001100010001000000</tspan><tspan x="3.513" y="482">1100100011000100010000001100101011</tspan><tspan x="3.519" y="500">1001001101000011010100111001001100</tspan><tspan x="3.516" y="518">1010101100001011001000110100001100</tspan><tspan x="3.513" y="536">1000110100001100110001000000110011</tspan><tspan x="3.526" y="554">0011100110110010001100110011001110</tspan><tspan x="3.532" y="572">1100001011001110110011001110011011</tspan><tspan x="3.516" y="590">0010001100111001000000111001101100</tspan><tspan x="3.526" y="608">1000110011101100100011001100110011</tspan><tspan x="3.519" y="626">1011100100110010100100000011001110</tspan><tspan x="3.522" y="644">1100101011100100110011100100000011</tspan><tspan x="3.522" y="662">0010101100111011001010111001000100</tspan><tspan x="3.516" y="680">0000110010101110010011000100110001</tspan><tspan x="3.51" y="698">0011110100110010001100010001000000</tspan><tspan x="3.513" y="716">1100110011001000110001000100000011</tspan><tspan x="3.51" y="734">0010001100010001000000110010101110</tspan><tspan x="3.519" y="752">0100110100001101010011100100110010</tspan><tspan x="3.522" y="770">1011011100110010001100110011000100</tspan><tspan x="3.529" y="788">1100001010110110110011101110000011</tspan><tspan x="3.526" y="806">0001001101111011010010011001100110</tspan><tspan x="3.519" y="824">1000010110100110000011110010110100</tspan><tspan x="3.507" y="842">1001000000010110101100010001100000</tspan><tspan x="3.516" y="860">1101001011000100010110100110000001</tspan><tspan x="3.516" y="878">1001100110100001000000110001001111</tspan><tspan x="3.519" y="896">0100110010010111001100100011001100</tspan><tspan x="3.529" y="914">1100010011000010101101101100111011</tspan><tspan x="3.522" y="932">1000001100010011011110110100100110</tspan><tspan x="3.519" y="950">0110011010000101101001100000111100</tspan><tspan x="3.513" y="968">1011010010010000000101101011000100</tspan><tspan x="3.516" y="986">0110000011010010110001000101101001</tspan><tspan x="3.507" y="1004">1000000110011001101000010000001100</tspan><tspan x="3.522" y="1022">0100111101001100100000110001001111</tspan><tspan x="3.513" y="1040">0100101100001011001000110100001100</tspan><tspan x="3.513" y="1058">1000110100001100110001000000110011</tspan><tspan x="3.516" y="1076">0011100110110000101100100011010000</tspan><tspan x="3.513" y="1094">1100100011010000110011000100000011</tspan><tspan x="3.522" y="1112">0011001110011011001000110011001100</tspan><tspan x="3.532" y="1130">1110110000101100111011001100111001</tspan><tspan x="3.519" y="1148">1011001000110011100100000011100110</tspan><tspan x="3.526" y="1166">1100100011001110110010001100110011</tspan><tspan x="3.516" y="1184">0011101110010011001010010000001100</tspan><tspan x="3.526" y="1202">1110110010101110010011001110010000</tspan><tspan x="3.526" y="1220">0011001010110011101100101011100100</tspan><tspan x="3.516" y="1238">0100000011001010111001001100010011</tspan><tspan x="3.513" y="1256">0001001111010011001000110001000100</tspan><tspan x="3.507" y="1274">0000110011001100100011000100010000</tspan><tspan x="3.507" y="1292">0011001000110001000100000011001010</tspan><tspan x="3.526" y="1310">1110010011010000110101001110010011</tspan><tspan x="3.522" y="1328">0010101101110011001000110011001100</tspan><tspan x="3.526" y="1346">0100110000101011011011001110111000</tspan><tspan x="3.526" y="1364">0011000100110111101101001001100110</tspan><tspan x="3.522" y="1382">0110100001011010011000001111001011</tspan><tspan x="3.51" y="1400">0100100100000001011010110001000110</tspan><tspan x="3.513" y="1418">0000110100101100010001011010011000</tspan><tspan x="3.507" y="1436">0001100110011010000100000011000100</tspan></text></g></svg>