<svg xmlns="http://www.w3.org/2000/svg" width="1159" height="800" viewBox="0 0 1159 800"><g transform="translate(-61)"><g transform="translate(-320)"><rect width="1" height="800" transform="translate(381)" fill="#fff" opacity="0.1"/><rect width="1" height="800" transform="translate(574)" fill="#fff" opacity="0.1"/><rect width="1" height="800" transform="translate(767)" fill="#fff" opacity="0.1"/><rect width="1" height="800" transform="translate(960)" fill="#fff" opacity="0.1"/><rect width="1" height="800" transform="translate(1153)" fill="#fff" opacity="0.1"/><rect width="1" height="800" transform="translate(1346)" fill="#fff" opacity="0.1"/><rect width="1" height="800" transform="translate(1539)" fill="#fff" opacity="0.1"/></g><text transform="translate(1027)" fill="#fff" font-size="13" font-family="Roboto-Regular, Roboto" opacity="0.05"><tspan x="0.804" y="14">01100001011001000110100001</tspan><tspan x="0.804" y="32">10010001101000011001100010</tspan><tspan x="0.811" y="50">00000110011001110011011001</tspan><tspan x="0.811" y="68">00011001100110011101100001</tspan><tspan x="0.82" y="86">01100111011001100111001101</tspan><tspan x="0.807" y="104">10010001100111001000000111</tspan><tspan x="0.814" y="122">00110110010001100111011001</tspan><tspan x="0.814" y="140">00011001100110011101110010</tspan><tspan x="0.807" y="158">01100101001000000110011101</tspan><tspan x="0.814" y="176">10010101110010011001110010</tspan><tspan x="0.811" y="194">00000110010101100111011001</tspan><tspan x="0.804" y="212">01011100100010000001100101</tspan><tspan x="0.807" y="230">01110010011000100110001001</tspan><tspan x="0.807" y="248">11101001100100011000100010</tspan><tspan x="0.801" y="266">00000110011001100100011000</tspan><tspan x="0.798" y="284">10001000000110010001100010</tspan><tspan x="0.804" y="302">00100000011001010111001001</tspan><tspan x="0.811" y="320">10100001101010011100100110</tspan><tspan x="0.817" y="338">01010110111001101100001011</tspan><tspan x="0.804" y="356">00100011010000110010001101</tspan><tspan x="0.801" y="374">00001100110001000000110011</tspan><tspan x="0.811" y="392">00111001101100100011001100</tspan><tspan x="0.82" y="410">11001110110000101100111011</tspan><tspan x="0.811" y="428">00110011100110110010001100</tspan><tspan x="0.811" y="446">11100100000011100110110010</tspan><tspan x="0.811" y="464">00110011101100100011001100</tspan><tspan x="0.817" y="482">11001110111001001100101001</tspan><tspan x="0.811" y="500">00000011001110110010101110</tspan><tspan x="0.804" y="518">01001100111001000000110010</tspan><tspan x="0.817" y="536">10110011101100101011100100</tspan><tspan x="0.807" y="554">01000000110010101110010011</tspan><tspan x="0.807" y="572">00010011000100111101001100</tspan><tspan x="0.801" y="590">10001100010001000000110011</tspan><tspan x="0.795" y="608">00110010001100010001000000</tspan><tspan x="0.801" y="626">11001000110001000100000011</tspan><tspan x="0.811" y="644">00101011100100110100001101</tspan><tspan x="0.811" y="662">01001110010011001010101100</tspan><tspan x="0.804" y="680">00101100100011010000110010</tspan><tspan x="0.798" y="698">00110100001100110001000000</tspan><tspan x="0.817" y="716">11001100111001101100100011</tspan><tspan x="0.811" y="734">00110011001110110000101100</tspan><tspan x="0.82" y="752">11101100110011100110110010</tspan><tspan x="0.807" y="770">00110011100100000011100110</tspan><tspan x="0.814" y="788">11001000110011101100100011</tspan></text></g></svg>