<svg xmlns="http://www.w3.org/2000/svg" width="513" height="1026" viewBox="0 0 513 1026"><g transform="translate(-128)"><rect width="1" height="1024" transform="translate(128)" fill="#fff" opacity="0.1"/><rect width="1" height="1024" transform="translate(256)" fill="#fff" opacity="0.1"/><rect width="1" height="1024" transform="translate(384)" fill="#fff" opacity="0.1"/><rect width="1" height="1024" transform="translate(512)" fill="#fff" opacity="0.1"/><rect width="1" height="1024" transform="translate(640)" fill="#fff" opacity="0.1"/><text transform="translate(512)" fill="#fff" font-size="13" font-family="Roboto-Regular, Roboto" opacity="0.05"><tspan x="2.255" y="14">01100001011001000</tspan><tspan x="2.258" y="32">11010000110010001</tspan><tspan x="2.258" y="50">10100001100110001</tspan><tspan x="2.258" y="68">00000011001100111</tspan><tspan x="2.258" y="86">00110110010001100</tspan><tspan x="2.264" y="104">11001100111011000</tspan><tspan x="2.268" y="122">01011001110110011</tspan><tspan x="2.261" y="140">00111001101100100</tspan><tspan x="2.255" y="158">01100111001000000</tspan><tspan x="2.264" y="176">11100110110010001</tspan><tspan x="2.264" y="194">10011101100100011</tspan><tspan x="2.268" y="212">00110011001110111</tspan><tspan x="2.255" y="230">00100110010100100</tspan><tspan x="2.261" y="248">00001100111011001</tspan><tspan x="2.264" y="266">01011100100110011</tspan><tspan x="2.255" y="284">10010000001100101</tspan><tspan x="2.264" y="302">01100111011001010</tspan><tspan x="2.255" y="320">11100100010000001</tspan><tspan x="2.264" y="338">10010101110010011</tspan><tspan x="2.258" y="356">00010011000100111</tspan><tspan x="2.258" y="374">10100110010001100</tspan><tspan x="2.252" y="392">01000100000011001</tspan><tspan x="2.258" y="410">10011001000110001</tspan><tspan x="2.249" y="428">00010000001100100</tspan><tspan x="2.249" y="446">01100010001000000</tspan><tspan x="2.264" y="464">11001010111001001</tspan><tspan x="2.261" y="482">10100001101010011</tspan><tspan x="2.261" y="500">10010011001010110</tspan><tspan x="2.264" y="518">11100110110000101</tspan><tspan x="2.258" y="536">10010001101000011</tspan><tspan x="2.255" y="554">00100011010000110</tspan><tspan x="2.252" y="572">01100010000001100</tspan><tspan x="2.268" y="590">11001110011011001</tspan><tspan x="2.261" y="608">00011001100110011</tspan><tspan x="2.264" y="626">10110000101100111</tspan><tspan x="2.264" y="644">01100110011100110</tspan><tspan x="2.261" y="662">11001000110011100</tspan><tspan x="2.261" y="680">10000001110011011</tspan><tspan x="2.261" y="698">00100011001110110</tspan><tspan x="2.258" y="716">01000110011001100</tspan><tspan x="2.268" y="734">11101110010011001</tspan><tspan x="2.255" y="752">01001000000110011</tspan><tspan x="2.264" y="770">10110010101110010</tspan><tspan x="2.255" y="788">01100111001000000</tspan><tspan x="2.268" y="806">11001010110011101</tspan><tspan x="2.261" y="824">10010101110010001</tspan><tspan x="2.258" y="842">00000011001010111</tspan><tspan x="2.255" y="860">00100110001001100</tspan><tspan x="2.264" y="878">01001111010011001</tspan><tspan x="2.249" y="896">00011000100010000</tspan><tspan x="2.258" y="914">00110011001100100</tspan><tspan x="2.249" y="932">01100010001000000</tspan><tspan x="2.255" y="950">11001000110001000</tspan><tspan x="2.258" y="968">10000001100101011</tspan><tspan x="2.258" y="986">10010011010000110</tspan><tspan x="2.261" y="1004">10100111001001100</tspan><tspan x="2.261" y="1022">10101011000010110</tspan></text></g></svg>