<svg xmlns="http://www.w3.org/2000/svg" width="1537.001" height="955.63" viewBox="0 0 1537.001 955.63">
    <defs>
        <style>
            .cls-1{fill:#be354e}
        </style>
    </defs>
    <path id="Lines" d="M15684 4365.632V3410h1v955.445l-.472.173zm384.5-65.1l-.5-.014V3410h1v890.175l-.5.357zm-192.5-5.232V3410h1v885.166l-.6-.017-.4.147zm384-130.916V3410h1v754.03l-.62.083-.378.269zm192-25.756V3410h1v728.2l-.443.352-.555.073zm384.469-114.174l-.473-.095v-614.355h1v614.1l-.525.345zM16644 3986.188V3410h1v575.955l-.566-.114-.432.343zm384-86.683V3410h1v488.537l-.344.538-.652.427zm192-298.81V3410h1v189.937l-.439-.109-.553.863z" class="cls-1" transform="translate(-15683.997 -3410.002)"/>
</svg>
