<svg xmlns="http://www.w3.org/2000/svg" width="250" height="736" viewBox="0 0 250 736"><g transform="translate(-82)"><rect width="1" height="736" transform="translate(82)" fill="#fff" opacity="0.1"/><rect width="1" height="736" transform="translate(165)" fill="#fff" opacity="0.1"/><rect width="1" height="736" transform="translate(248)" fill="#fff" opacity="0.1"/><rect width="1" height="736" transform="translate(331)" fill="#fff" opacity="0.1"/><text transform="translate(248)" fill="#fff" font-size="13" font-family="Roboto-Regular, Roboto" opacity="0.05"><tspan x="1.727" y="14">01100001011</tspan><tspan x="1.724" y="32">00100011010</tspan><tspan x="1.721" y="50">00011001000</tspan><tspan x="1.727" y="68">11010000110</tspan><tspan x="1.721" y="86">01100010000</tspan><tspan x="1.727" y="104">00110011001</tspan><tspan x="1.73" y="122">11001101100</tspan><tspan x="1.727" y="140">10001100110</tspan><tspan x="1.734" y="158">01100111011</tspan><tspan x="1.724" y="176">00001011001</tspan><tspan x="1.73" y="194">11011001100</tspan><tspan x="1.734" y="212">11100110110</tspan><tspan x="1.727" y="230">01000110011</tspan><tspan x="1.721" y="248">10010000001</tspan><tspan x="1.73" y="266">11001101100</tspan><tspan x="1.73" y="284">10001100111</tspan><tspan x="1.727" y="302">01100100011</tspan><tspan x="1.727" y="320">00110011001</tspan><tspan x="1.73" y="338">11011100100</tspan><tspan x="1.727" y="356">11001010010</tspan><tspan x="1.724" y="374">00000110011</tspan><tspan x="1.73" y="392">10110010101</tspan><tspan x="1.727" y="410">11001001100</tspan><tspan x="1.724" y="428">11100100000</tspan><tspan x="1.73" y="446">01100101011</tspan><tspan x="1.73" y="464">00111011001</tspan><tspan x="1.727" y="482">01011100100</tspan><tspan x="1.721" y="500">01000000110</tspan><tspan x="1.73" y="518">01010111001</tspan><tspan x="1.724" y="536">00110001001</tspan><tspan x="1.73" y="554">10001001111</tspan><tspan x="1.724" y="572">01001100100</tspan><tspan x="1.724" y="590">01100010001</tspan><tspan x="1.721" y="608">00000011001</tspan><tspan x="1.724" y="626">10011001000</tspan><tspan x="1.724" y="644">11000100010</tspan><tspan x="1.721" y="662">00000110010</tspan><tspan x="1.721" y="680">00110001000</tspan><tspan x="1.721" y="698">10000001100</tspan><tspan x="1.73" y="716">10101110010</tspan></text></g></svg>