<svg xmlns="http://www.w3.org/2000/svg" width="32" height="32" viewBox="0 0 32 32"><path d="M-4670-5046a15.889,15.889,0,0,1-6.228-1.257,15.93,15.93,0,0,1-5.085-3.43,15.93,15.93,0,0,1-3.43-5.085A15.891,15.891,0,0,1-4686-5062a15.89,15.89,0,0,1,1.258-6.228,15.93,15.93,0,0,1,3.43-5.085,15.914,15.914,0,0,1,5.085-3.43A15.89,15.89,0,0,1-4670-5078a15.891,15.891,0,0,1,6.229,1.258,15.914,15.914,0,0,1,5.085,3.43,15.93,15.93,0,0,1,3.43,5.085A15.889,15.889,0,0,1-4654-5062a15.891,15.891,0,0,1-1.257,6.229,15.914,15.914,0,0,1-3.43,5.085,15.93,15.93,0,0,1-5.085,3.43A15.891,15.891,0,0,1-4670-5046Zm3.8-16.87a1.682,1.682,0,0,1,1.487.721,3.33,3.33,0,0,1,.449,1.88v6.153h3.825v-6.6c0-3.241-1.646-5.177-4.4-5.177a3.779,3.779,0,0,0-3.446,1.9v-1.63h-3.824c.051,1.071,0,11.4,0,11.5h3.824v-6.424a2.541,2.541,0,0,1,.126-.932,2.389,2.389,0,0,1,.689-.958A1.965,1.965,0,0,1-4666.2-5062.872Zm-11.851-2.748v11.5h3.823v-11.5Zm1.937-5.545a1.991,1.991,0,0,0-2.164,1.987,1.986,1.986,0,0,0,2.114,1.988h.024a1.992,1.992,0,0,0,2.164-1.988A1.986,1.986,0,0,0-4676.116-5071.165Z" transform="translate(4686.001 5078.002)" fill="#007ab9"/></svg>