<svg xmlns="http://www.w3.org/2000/svg" width="155.994" height="52" viewBox="0 0 155.994 52"><path d="M10869.658,4207.572v-7.148q0-1.5.127-2.9l-14.762,31.07h-15l17.957-37.634h-19.953a27.228,27.228,0,0,1,1.559,9.46v7.077c0,15-9.955,22.5-21.445,22.5s-22.145-7.011-22.145-22.429v-7.148c0-15.347,10.088-22.423,22-22.423,7.246,0,13.662,2.746,17.576,8.271v-6.731h42.75l-1.662,3.5c3.967-3.4,9.271-5.035,15-5.035,7.246,0,13.662,2.746,17.576,8.271v-6.731h42.754l-23.311,49.057h-15l17.957-37.634h-19.953a27.23,27.23,0,0,1,1.557,9.46v7.077c0,15-9.947,22.5-21.441,22.5S10869.658,4222.99,10869.658,4207.572Zm12.348-6.585v6.121c0,7.453,4,11.026,9.453,11.026s9.516-3.573,9.516-11.026v-6.121c0-7.21-3.941-10.846-9.332-10.846S10882.006,4193.536,10882.006,4200.987Zm-73.658,0v6.121c0,7.453,4,11.026,9.451,11.026s9.516-3.573,9.516-11.026v-6.121c0-7.21-3.941-10.846-9.336-10.846S10808.348,4193.536,10808.348,4200.987Z" transform="translate(-10796 -4178.001)" fill="#086b65"/></svg>