<?xml version="1.0" encoding="utf-8"?>
<!-- Generator: Adobe Illustrator 21.1.0, SVG Export Plug-In . SVG Version: 6.00 Build 0)  -->
<svg version="1.1" id="Grid" xmlns="http://www.w3.org/2000/svg" xmlns:xlink="http://www.w3.org/1999/xlink" x="0px" y="0px"
	 viewBox="0 0 1920 1064" style="enable-background:new 0 0 1920 1064;" xml:space="preserve">
<style type="text/css">
	.st0{fill:url(#Back_1_);}
	.st1{opacity:0.1;fill:#FFFFFF;}
</style>
<linearGradient id="Back_1_" gradientUnits="userSpaceOnUse" x1="1347.6344" y1="1368.3864" x2="880.0007" y2="488.8953">
	<stop  offset="0" style="stop-color:#FFFFFF;stop-opacity:0"/>
	<stop  offset="1" style="stop-color:#FFFFFF;stop-opacity:5.000000e-02"/>
</linearGradient>
<polyline id="Back" class="st0" points="0,956.8 188.5,956.1 188.6,956.1 381.6,885.8 574.5,890.3 574.7,890.3 767.7,756.1 960,728 
	960.6,727.9 960.7,727.9 961,727.6 1153,577.2 1153.6,576.7 1154,576.8 1346,611.5 1346.4,611.6 1346.6,611.6 1347,611.4 
	1539,486.8 1539.8,486.3 1539.9,486.2 1540,486 1732.8,188.9 1920,214.7 1920,232.2 1920,1064.1 0,1064 "/>
<polygon id="Lines" class="st1" points="1920,213.7 1920,214.7 1732.8,188.9 1540,486 1539.9,486.2 1539.8,486.3 1539,486.8 
	1347,611.4 1346.6,611.6 1346.4,611.6 1346,611.5 1154,576.8 1153.6,576.7 1153,577.2 961,727.6 960.7,727.9 960.6,727.9 960,728 
	767.7,756.1 574.7,890.3 574.5,890.3 381.6,885.8 188.6,956.1 188.5,956.1 0,956.8 0,955.8 188,955.1 188,0 189,0 189,954.9 
	381,885 381,0 382,0 382,884.9 574,889.3 574,0 575,0 575,888.8 767,755.3 767,0 768,0 768,755 960,727 960,0 961,0 961,726.4 
	1153,576 1153,0 1154,0 1154,575.8 1346,610.5 1346,0 1347,0 1347,610.2 1539,485.6 1539,0 1540,0 1540,484.1 1732,188.2 1732,0 
	1733,0 1733,188 "/>
</svg>
