<svg id="Grid_Graph" data-name="Grid&amp;Graph" xmlns="http://www.w3.org/2000/svg" xmlns:xlink="http://www.w3.org/1999/xlink" width="1366" height="770.6" viewBox="0 0 1366 770.6">
  <defs>
    <linearGradient id="linear-gradient" x1="0.722" y1="1.274" x2="0.459" y2="0.357" gradientUnits="objectBoundingBox">
      <stop offset="0" stop-color="#fff" stop-opacity="0"/>
      <stop offset="1" stop-color="#fff" stop-opacity="0.051"/>
    </linearGradient>
  </defs>
  <path id="Graph" d="M1366,33.8V770.6H0V630.5l104.6-38.1,192.9,4.5h.2l193-134.2L683,434.5h.7l.3-.3L876,283.8l.6-.5.4.1L1069,318l.4.2h.2l.4-.2,192-124.6.8-.5.1-.1.1-.3Z" fill="url(#linear-gradient)"/>
  <path id="Grid" d="M1366,31.9v1.9L1263,192.5l-.1.3-.1.1-.8.5L1070,318l-.4.2h-.2l-.4-.2L877,283.4l-.4-.1-.6.5L684,434.2l-.3.3H683L490.7,462.7l-193,134.2h-.2l-192.9-4.5L0,630.5v-1.1l104-37.9V0h1V591.5l192,4.4V0h1V595.4L490,461.9V0h1V461.5l192-28V0h1V433L876,282.5V0h1V282.4L1069,317V0h1V316.8l192-124.6V0h1V190.7Z" fill="#fff" opacity="0.1"/>
</svg>
