<svg xmlns="http://www.w3.org/2000/svg" xmlns:xlink="http://www.w3.org/1999/xlink" width="1680" height="1050" viewBox="0 0 1680 1050"><defs><linearGradient id="a" x1="0.717" y1="1.289" x2="0.47" y2="0.397" gradientUnits="objectBoundingBox"><stop offset="0" stop-color="#fff" stop-opacity="0"/><stop offset="1" stop-color="#fff" stop-opacity="0.051"/></linearGradient></defs><path d="M1680,184.1V1050L0,1049.9V942.3l68.5-.3h.1l193-70.3,192.9,4.5h.2L647.7,742,840,713.9l.6-.1h.1l.3-.3,192-150.4.6-.5.4.1,192,34.7.4.1h.2l.4-.2,192-124.6.8-.5.1-.1.1-.2,192.8-297.1Z" fill="url(#a)"/><path d="M1680,183.1v1l-67.2-9.3L1420,471.9l-.1.2-.1.1-.8.5L1227,597.3l-.4.2h-.2l-.4-.1-192-34.7-.4-.1-.6.5L841,713.5l-.3.3h-.1l-.6.1L647.7,742l-193,134.2h-.2l-192.9-4.5L68.6,942h-.1L0,942.3v-1l68-.3V0h1V940.8l192-69.9V0h1V870.8l192,4.4V0h1V874.7L647,741.2V0h1V740.9l192-28V0h1V712.3l192-150.4V0h1V561.7l192,34.7V0h1V596.1l192-124.6V0h1V470l192-295.9V0h1V173.9Z" fill="#fff" opacity="0.1"/></svg>