<svg xmlns="http://www.w3.org/2000/svg" xmlns:xlink="http://www.w3.org/1999/xlink" width="3840" height="2160" viewBox="0 0 3840 2160"><defs><linearGradient id="a" x1="0.702" y1="-0.421" x2="0.458" y2="0.584" gradientUnits="objectBoundingBox"><stop offset="0" stop-color="#fff" stop-opacity="0"/><stop offset="1" stop-color="#fff" stop-opacity="0.051"/></linearGradient></defs><path d="M0,1597.6l377-1.4h.2l386-140.6,385.8,9h.4l386-268.4L1920,1140l1.2-.2h.2l.6-.6,384-300.8,1.2-1,.8.2L2692,907l.8.2h.4l.8-.4,384-249.2,1.6-1,.2-.2.2-.4L3465.6,61.8,3840,113.4V1812.2L0,1812Z" transform="translate(0 347.8)" fill="url(#a)"/><path d="M3840,316.2v2l-374.4-51.6L3080,860.8l-.2.4-.2.2-1.6,1-384,249.2-.8.4h-.4l-.8-.2-384-69.4-.8-.2-1.2,1L1922,1344l-.6.6h-.2l-1.2.2L1535.4,1401l-386,268.4h-.4l-385.8-9L377.2,1801H377L0,1802.4v-2l376-1.4V-143h2V1798.6l384-139.8V-143h2V1658.6l384,8.8V-143h2V1666.4l384-267V-143h2V1398.8l384-56V-143h2V1341.6l384-300.8V-143h2V1040.4l384,69.4V-143h2V1109.2L3078,860V-143h2V857l384-591.8V-143h2V264.8Z" transform="translate(0 143)" fill="#fff" opacity="0.1"/></svg>