<svg xmlns="http://www.w3.org/2000/svg" width="48" height="48" viewBox="0 0 48 48"><path d="M4.219,18H0V14.25H4.219ZM1.727,25.407l1.687,3.349,3.979-2L5.706,23.4ZM7.3,5.212,3.414,3.255,1.727,6.6,5.613,8.561ZM44.669,18a7.469,7.469,0,0,1-.8,1.932l2.381,2.381-2.652,2.652-2.381-2.381a7.469,7.469,0,0,1-1.932.8v3.331h-3.75V23.388a7.469,7.469,0,0,1-1.932-.8l-2.381,2.381-2.652-2.652,2.381-2.381a7.469,7.469,0,0,1-.8-1.932H26.719V14.25h3.425a7.469,7.469,0,0,1,.8-1.932L28.567,9.938l2.652-2.652L33.6,9.667a7.469,7.469,0,0,1,1.932-.8V5.531h3.75V8.863a7.469,7.469,0,0,1,1.932.8l2.381-2.381,2.652,2.652-2.381,2.381a7.469,7.469,0,0,1,.8,1.932H48V18ZM33.656,16.055a3.8,3.8,0,0,0,3.66,3.819,3.75,3.75,0,1,0,.09-7.5h-.068A3.68,3.68,0,0,0,33.656,16.055ZM30.685,28.794a14.25,14.25,0,0,0,3.658,1.345c-1.68,2.249-2.926,4.233-2.926,7.307v4.93A5.631,5.631,0,0,1,25.792,48H22.208a5.631,5.631,0,0,1-5.625-5.625v-4.93c0-3.46-1.58-5.539-3.579-8.171-2.391-3.146-5.1-6.71-5.129-13.15h0v-.107A16.117,16.117,0,0,1,32.721,2.568,14.331,14.331,0,0,0,28.748,4.7a12.374,12.374,0,0,0-17.123,11.38c.016,5.205,2.129,7.986,4.365,10.928,1.735,2.283,3.518,4.63,4.126,7.963h7.77a15.215,15.215,0,0,1,2.8-6.175ZM27.666,42.375V38.719H20.333v3.656a1.877,1.877,0,0,0,1.875,1.875h3.583A1.877,1.877,0,0,0,27.666,42.375Zm0,0" transform="translate(0 0)"/></svg>