<svg xmlns="http://www.w3.org/2000/svg" width="44.076" height="48.001" viewBox="0 0 44.076 48.001"><path d="M44.391,38.4l-5.4-5.4A11.254,11.254,0,0,0,24.012,19.608l-2.668,1.045,5.8,5.8a1.875,1.875,0,0,1-2.652,2.652l-5.8-5.8-1.046,2.668A11.255,11.255,0,0,0,31.035,40.953l5.4,5.4A5.626,5.626,0,0,0,44.391,38.4Zm-2.652,5.3a1.875,1.875,0,0,1-2.652,0L32.006,36.62l-1.143.448a7.5,7.5,0,0,1-10.229-6.515l1.208,1.208A5.626,5.626,0,0,0,29.8,23.8L28.591,22.6a7.5,7.5,0,0,1,6.515,10.229l-.448,1.143,7.081,7.081h0a1.875,1.875,0,0,1,0,2.652Zm-19.647.12a15.025,15.025,0,0,0,5.351,1.249,38.879,38.879,0,0,1-4.653,2.581l-.762.339-.762-.339a43.647,43.647,0,0,1-9.55-6.194A31.432,31.432,0,0,1,5.07,33.794,20.9,20.9,0,0,1,1.962,22.964V11.65A5.628,5.628,0,0,1,6.609,6.11a30.3,30.3,0,0,0,10.824-4.7,8.213,8.213,0,0,1,9.19,0,30.3,30.3,0,0,0,10.824,4.7h0a5.628,5.628,0,0,1,4.647,5.539V22.964q0,.758-.058,1.51a14.981,14.981,0,0,0-3.305-5q-.191-.191-.387-.373V11.65A1.881,1.881,0,0,0,36.784,9.8,34.091,34.091,0,0,1,24.528,4.517a4.462,4.462,0,0,0-5,0A34.091,34.091,0,0,1,7.271,9.8,1.881,1.881,0,0,0,5.713,11.65V22.964c0,5.572,2.815,10.814,8.367,15.58a41.6,41.6,0,0,0,7.948,5.309Z" transform="translate(-1.962)"/></svg>