<svg xmlns="http://www.w3.org/2000/svg" width="48.001" height="47.934" viewBox="0 0 48.001 47.934"><path d="M43.417,39.879A6.092,6.092,0,1,0,33.153,38.8a13,13,0,0,0-3.469-2.485,7.875,7.875,0,1,0-11.367,0A12.994,12.994,0,0,0,14.848,38.8a6.095,6.095,0,1,0-10.265,1.08A9.38,9.38,0,0,0,0,47.934H3.75a5.626,5.626,0,0,1,8.3-4.95,12.864,12.864,0,0,0-.985,4.95h3.75a9.188,9.188,0,1,1,18.375,0h3.75a12.864,12.864,0,0,0-.985-4.95,5.626,5.626,0,0,1,8.3,4.95H48A9.38,9.38,0,0,0,43.417,39.879Zm-34.042-6.1a2.344,2.344,0,1,1-2.344,2.344A2.346,2.346,0,0,1,9.375,33.777Zm10.5-2.906A4.125,4.125,0,1,1,24,35,4.13,4.13,0,0,1,19.875,30.871Zm18.75,2.906a2.344,2.344,0,1,1-2.344,2.344A2.346,2.346,0,0,1,38.626,33.777ZM19.7,9.6,17.049,6.951,24,0l6.951,6.951L28.3,9.6,25.875,7.179V19.246h-3.75V7.179Zm14.625,9.375-2.652-2.652,6.951-6.951,6.951,6.951-2.652,2.652L40.5,16.554v9.723h-3.75V16.554Zm-29.25,0L2.424,16.326,9.375,9.375l6.951,6.951-2.652,2.652L11.25,16.554v9.723H7.5V16.554Zm0,0" transform="translate(0)"/></svg>