<svg xmlns="http://www.w3.org/2000/svg" width="37.5" height="48" viewBox="0 0 37.5 48"><path d="M88.3,36.768C83.86,29.762,83.284,20.7,83.278,20.613l-.1-1.769h-2.8V15H82.25a5.631,5.631,0,0,0,5.625-5.625V0H61.625V9.375A5.631,5.631,0,0,0,67.25,15h1.875v3.844h-.937l-1.769,0-.1,1.766c-.005.093-.582,9.144-5.022,16.149A5.632,5.632,0,0,0,56,42.375V48H93.5V42.375A5.631,5.631,0,0,0,88.3,36.768ZM67.25,11.25a1.877,1.877,0,0,1-1.875-1.875V3.75h3.75V7.5h3.75V3.75h3.75V7.5h3.75V3.75h3.75V9.375A1.877,1.877,0,0,1,82.25,11.25ZM76.625,15v3.844h-3.75V15Zm-6.737,7.594h9.818A42.823,42.823,0,0,0,83.964,36.75H65.629A42.821,42.821,0,0,0,69.888,22.594ZM89.75,44.25h-30V42.375A1.877,1.877,0,0,1,61.625,40.5h26.25a1.877,1.877,0,0,1,1.875,1.875Z" transform="translate(-56)"/></svg>