<svg xmlns="http://www.w3.org/2000/svg" width="48" height="48" viewBox="0 0 48 48"><path d="M45.8,12.8A7.5,7.5,0,0,0,35.192,2.2L24.638,12.755,11.949.065.123,11.891,12.815,24.583l-7.886,7.89A8.989,8.989,0,0,0,2.76,35.986l-.028.085L0,48,11.94,45.274l.084-.028a9.006,9.006,0,0,0,3.518-2.167l7.882-7.886L36.109,47.879,47.935,36.052,35.247,23.364Zm-8.568,3.273-5.315-5.31,2.033-2.034,5.315,5.31ZM43.151,4.842a3.756,3.756,0,0,1,0,5.314l-1.237,1.237L36.6,6.083l1.239-1.239a3.76,3.76,0,0,1,5.31,0ZM5.421,11.891l6.528-6.529,3.679,3.679L12.4,12.266l2.648,2.649,3.224-3.224L21.99,15.4l-6.527,6.53ZM6.1,38.148l3.762,3.759L4.983,43.021Zm7.189,1.887-5.314-5.31,21.3-21.309,5.315,5.31ZM36.27,29.684l-3.224,3.224,2.648,2.649,3.224-3.224,3.719,3.719-6.528,6.529L26.072,32.543l6.527-6.53Zm0,0" transform="translate(0.001 -0.001)"/></svg>