<svg xmlns="http://www.w3.org/2000/svg" width="48.053" height="48" viewBox="0 0 48.053 48"><path d="M15.4,37.016a32.14,32.14,0,0,0,3.755-.424v11.74H15.4ZM0,48.332H3.755V37.066H0ZM7.7,37.066V48.332h3.755V37.066ZM38.4,48.332h3.755V19.787A31.941,31.941,0,0,1,38.4,25.425Zm-7.7,0h3.755V29.412A32.054,32.054,0,0,1,30.7,32.164ZM23,35.675V48.332h3.755V34.268c-.2.09-.4.179-.608.265A32.208,32.208,0,0,1,23,35.675ZM40.154.332,32.187,8.3l2.655,2.655,3.3-3.3a24.726,24.726,0,0,1-24.533,21.9H0v3.755H13.612a28.26,28.26,0,0,0,20.115-8.332A28.23,28.23,0,0,0,41.943,7.432L45.4,10.887l2.655-2.655Zm0,0" transform="translate(0 -0.332)"/></svg>