<svg xmlns="http://www.w3.org/2000/svg" width="32" height="26.618" viewBox="0 0 32 26.618"><path d="M31.491,37.588a12.671,12.671,0,0,1-2.206.744A6.88,6.88,0,0,0,31.1,35.44h0a.361.361,0,0,0-.528-.42h0A12.732,12.732,0,0,1,27.2,36.413a.86.86,0,0,1-.211.026.894.894,0,0,1-.591-.226,6.9,6.9,0,0,0-4.565-1.723,7.376,7.376,0,0,0-2.186.337,6.684,6.684,0,0,0-4.5,4.816,7.36,7.36,0,0,0-.164,2.54.247.247,0,0,1-.062.194.256.256,0,0,1-.19.086H14.7A18.09,18.09,0,0,1,2.27,35.821h0a.361.361,0,0,0-.591.046h0A6.907,6.907,0,0,0,2.8,44.253a6.182,6.182,0,0,1-1.574-.609h0a.361.361,0,0,0-.536.311h0a6.908,6.908,0,0,0,4.029,6.364l-.147,0a6.208,6.208,0,0,1-1.162-.111h0A.361.361,0,0,0,3,50.674H3a6.914,6.914,0,0,0,5.462,4.7,12.731,12.731,0,0,1-7.13,2.165h-.8a.528.528,0,0,0-.516.4.547.547,0,0,0,.262.6,18.935,18.935,0,0,0,9.515,2.566,19.2,19.2,0,0,0,8.131-1.725,17.956,17.956,0,0,0,5.949-4.458,19.545,19.545,0,0,0,3.643-6.1,19.273,19.273,0,0,0,1.238-6.678v-.105a1.174,1.174,0,0,1,.439-.914,13.636,13.636,0,0,0,2.743-3.011h0a.361.361,0,0,0-.446-.53Z" transform="translate(0 -34.491)" fill="#76a9ea"/></svg>