<svg xmlns="http://www.w3.org/2000/svg" width="193.001" height="822.736" viewBox="0 0 193.001 822.736"><path d="M6972.879,2047.255c-42.51,0-71.676-28.266-71.676-69.554s29-69.554,71.676-69.554a72.844,72.844,0,0,1,52.432,20.507,12.091,12.091,0,0,1,3.091,8.3,10.762,10.762,0,0,1-3.237,8.192,11.136,11.136,0,0,1-8.345,3.147,11.965,11.965,0,0,1-8.436-3.31,47.736,47.736,0,0,0-35.506-14.433c-27.568,0-46.477,19.152-46.477,47.149s18.909,47.145,46.477,47.145a45.934,45.934,0,0,0,36.94-15.842,11.831,11.831,0,0,1,9.264-4.4,11.13,11.13,0,0,1,8.526,3.041,10.772,10.772,0,0,1,3.33,8.3,11.784,11.784,0,0,1-2.536,7.217,69,69,0,0,1-52.555,24.154Q6974.365,2047.319,6972.879,2047.255Zm-121.027-1.765a12.426,12.426,0,0,1-5.395-11.507V1923.711a12.422,12.422,0,0,1,5.395-11.5,10.963,10.963,0,0,1,12.132,0,12.419,12.419,0,0,1,5.4,11.5v110.273a12.423,12.423,0,0,1-5.4,11.507,10.98,10.98,0,0,1-12.132,0Zm265.81,1.78c-43.683,0-72.3-28-72.3-69.57s28.78-69.573,70.994-69.573c39.313,0,68.365,27.674,68.365,63.169l-.057.812a14.077,14.077,0,0,1-4.191,11.282,14.257,14.257,0,0,1-11.426,3.967h-97.965c3.933,22.74,21.244,37.716,46.636,37.716a47.9,47.9,0,0,0,37.294-16.062,12.321,12.321,0,0,1,9.5-4.4,10.965,10.965,0,0,1,8.41,3.06,10.827,10.827,0,0,1,3.28,8.283,11.846,11.846,0,0,1-2.513,7.217,71.182,71.182,0,0,1-53.464,24.14Q7118.948,2047.316,7117.662,2047.271Zm-45.976-81.672h89.28a45.99,45.99,0,0,0-89.28,0Zm137.061,12.125c0-41.857,26.976-69.6,67.308-69.6,22.747,0,40.661,8.306,51.45,22.147h.558v-7.163a11.468,11.468,0,0,1,2.942-9.433,12.1,12.1,0,0,1,9.293-3.869,12.265,12.265,0,0,1,9.415,3.819,11.636,11.636,0,0,1,3.1,9.483v109.6a11.563,11.563,0,0,1-3.174,9.335,12.165,12.165,0,0,1-9.342,3.694,12,12,0,0,1-9.221-3.74,11.374,11.374,0,0,1-3.014-9.289v-7.547h-.558c-10.789,14.114-28.7,22.147-51.45,22.147C7235.724,2047.316,7208.748,2019.577,7208.748,1977.724Zm25.253.053c0,28.012,19.079,47.176,46.614,47.176s47.448-19.437,47.448-47.176-19.3-47.176-47.448-47.176S7234,1949.765,7234,1977.777Zm-558.649-.053c0-41.314,29.329-69.6,72.083-69.6,42.8,0,72.078,28.282,72.078,69.6s-29.44,69.592-72.078,69.592S6675.352,2019.035,6675.352,1977.724Zm25.339,0c0,28.009,19.019,47.392,46.744,47.392v-.22c28.053,0,47.019-19.163,47.019-47.172s-18.966-47.176-47.019-47.176S6700.691,1949.712,6700.691,1977.724Zm-114.906,58.982-52.036-107.3a19.276,19.276,0,0,1-2.559-9.609,11.672,11.672,0,0,1,12.186-11.662c6.014,0,9.127,2.832,11.966,8.83l45.467,97.02h.611l45.47-97.631a12.4,12.4,0,0,1,11.685-8.219,11.613,11.613,0,0,1,11.909,12.771,15.223,15.223,0,0,1-1.667,6.833l-52.926,108.963a15.984,15.984,0,0,1-30.107,0Zm261.66-155.2a14.9,14.9,0,0,1-3.876-11.051,15.26,15.26,0,0,1,9-14.016,13.843,13.843,0,0,1,15.679,3.447,15.9,15.9,0,0,1,2.976,16.65,14.4,14.4,0,0,1-13.409,9.266c-.219.011-.436.017-.654.017A13.252,13.252,0,0,1,6847.445,1881.509Z" transform="translate(-1854.817 7353.426) rotate(-90)" fill="#fafcff" stroke="#2269f6" stroke-width="1" opacity="0.3"/></svg>